# xmcd
#
# Track frame offsets:
# 151
# 15325
# 30426
# 44685
# 62826
# 79177
# 99380
# 117276
# 135384
#
# Disc length: 2133 seconds
#
# Revision: 0
# Processed by: cddbd v1.5.2PL0 Copyright (c) Steve Scherf et al.
# Submitted via: Audion 3.0.2 (http://www.panic.com/audion/)
#
DISCID=69085309
DTITLE=The B-52s - Wild Planet
DYEAR=1900
DGENRE=
TTITLE0=Party Out of Bounds
TTITLE1=Dirty Back Road
TTITLE2=Runnin' Around
TTITLE3=Give Me Back My Man
TTITLE4=Private Idaho
TTITLE5=Devil In My Car
TTITLE6=Quiche Lorraine
TTITLE7=Strobe Light
TTITLE8=53 Miles West of Venus
EXTD=
EXTT0=
EXTT1=
EXTT2=
EXTT3=
EXTT4=
EXTT5=
EXTT6=
EXTT7=
EXTT8=
PLAYORDER=
